
<svg version="1.0" xmlns="http://www.w3.org/2000/svg"
 width="100%" height="100%" viewBox="0 0 901.000000 902.000000"
 preserveAspectRatio="xMidYMid meet">
<g transform="translate(0.000000,902.000000) scale(0.100000,-0.100000)"
fill="#000000ae" stroke="none">
<path fill="#000000" d="M0 4510 l0 -4510 4505 0 4505 0 0 4510 0 4510 -4505 0 -4505 0 0
-4510z m4870 4284 c314 -28 562 -73 822 -149 1475 -429 2608 -1606 2973 -3086
92 -372 127 -698 120 -1099 -9 -526 -108 -1018 -304 -1509 -313 -786 -887
-1489 -1607 -1969 -572 -382 -1239 -619 -1949 -693 -136 -15 -563 -18 -735 -6
-514 36 -1084 194 -1570 436 -672 335 -1267 865 -1675 1491 -345 531 -579
1153 -654 1745 -6 44 -13 101 -17 127 -37 293 -28 739 22 1083 182 1250 932
2371 2030 3036 559 338 1257 560 1869 595 61 4 112 8 114 10 10 9 430 0 561
-12z"/>
<path  d="M4378 8275 c-2 -1 -56 -5 -122 -9 -351 -20 -756 -111 -1100 -248
-859 -341 -1556 -977 -1970 -1798 -264 -521 -395 -1059 -400 -1630 -1 -170 10
-445 19 -460 1 -3 6 -34 9 -70 4 -35 18 -125 32 -200 125 -684 457 -1342 936
-1855 217 -233 415 -402 683 -580 597 -398 1295 -613 2005 -618 379 -3 625 26
975 115 587 149 1162 461 1595 865 359 334 618 680 830 1108 266 538 387 1069
384 1675 -9 1406 -810 2684 -2079 3318 -355 177 -813 318 -1165 356 -30 4 -71
8 -90 11 -112 14 -174 17 -347 20 -106 1 -194 1 -195 0z m324 -1442 l3 -318
1003 -3 1002 -2 0 -185 0 -185 -816 0 -815 0 63 -56 c70 -62 289 -228 387
-294 422 -283 1014 -548 1499 -670 l43 -11 -71 -76 c-39 -42 -100 -120 -136
-175 -37 -54 -68 -98 -70 -98 -2 0 -74 25 -159 55 -691 246 -1341 638 -1801
1087 -66 65 -124 118 -127 118 -4 0 -7 -299 -7 -665 l0 -665 -205 0 -205 0 -1
648 c-1 356 -1 653 0 661 7 48 -15 34 -136 -86 -355 -354 -806 -668 -1328
-923 -253 -124 -618 -274 -629 -259 -1 2 -28 40 -58 84 -31 44 -88 117 -126
162 l-70 80 196 66 c626 208 1261 571 1672 955 l65 61 -782 1 -783 0 0 185 0
185 988 2 987 3 2 295 c2 162 3 305 3 318 l0 22 205 0 205 0 2 -317z m-1252
-2218 l0 -295 450 0 450 0 0 -185 0 -185 -450 0 -450 0 0 -24 c0 -19 30 -45
158 -137 231 -166 772 -571 772 -578 0 -3 -67 -57 -149 -120 -135 -102 -152
-112 -168 -99 -11 7 -71 59 -133 115 -63 56 -196 169 -295 252 l-180 150 -3
-729 -2 -730 -200 0 -200 0 -2 691 -3 692 -69 -98 c-231 -328 -532 -642 -801
-833 l-88 -62 -37 88 c-32 76 -96 203 -134 264 -6 9 -8 18 -6 20 272 181 335
232 545 443 213 212 350 381 498 615 l48 75 -446 3 -445 2 0 185 0 185 470 0
470 0 0 295 0 295 200 0 200 0 0 -295z m2400 -5 l0 -300 535 0 535 0 0 -185 0
-185 -500 0 c-275 0 -500 -4 -500 -8 0 -13 167 -231 255 -333 263 -303 557
-568 832 -751 l123 -82 -98 -100 c-77 -80 -150 -167 -189 -225 -4 -6 -183 147
-307 263 -201 187 -433 448 -613 689 l-73 98 0 -745 0 -745 -195 -3 -195 -3 0
728 c0 419 -4 727 -9 725 -5 -1 -43 -46 -85 -98 -216 -266 -468 -514 -721
-706 -101 -77 -306 -214 -320 -214 -5 0 -26 24 -45 52 -19 29 -75 94 -124 145
-49 52 -87 95 -85 97 2 2 42 25 88 51 426 240 891 665 1163 1063 32 47 58 89
58 94 0 4 -189 8 -420 8 l-420 0 0 185 0 185 460 0 460 0 0 300 0 300 195 0
195 0 0 -300z"/>
</g>
</svg>
